HIERARCHY
ROOT Hips
{
 OFFSET 0.000000 0.000000 0.000000
 CHANNELS 6 Xposition Yposition Zposition Yrotation Xrotation Zrotation
 JOINT Chest
 {
  OFFSET 0.000000 9.585900 0.002600
  CHANNELS 3 Yrotation Xrotation Zrotation
  JOINT Chest2
  {
   OFFSET 0.000000 9.601200 -0.005300
   CHANNELS 3 Yrotation Xrotation Zrotation
   JOINT Chest3
   {
    OFFSET 0.000000 9.561800 0.000000
    CHANNELS 3 Yrotation Xrotation Zrotation
    JOINT Chest4
    {
     OFFSET 0.000000 9.552100 0.000000
     CHANNELS 3 Yrotation Xrotation Zrotation
     JOINT Neck
     {
      OFFSET 0.000000 14.453000 0.000000
      CHANNELS 3 Yrotation Xrotation Zrotation
      JOINT Head
      {
       OFFSET 0.000000 8.936500 -0.011300
       CHANNELS 3 Yrotation Xrotation Zrotation
       End Site
       {
        OFFSET 0.000000 17.073600 -0.006000
       }
      }
     }
     JOINT RightCollar
     {
      OFFSET -2.921100 9.558500 0.000000
      CHANNELS 3 Yrotation Xrotation Zrotation
      JOINT RightShoulder
      {
       OFFSET -13.519700 0.000000 0.000000
       CHANNELS 3 Yrotation Xrotation Zrotation
       JOINT RightElbow
       {
        OFFSET 0.000000 -29.696600 0.000000
        CHANNELS 3 Yrotation Xrotation Zrotation
        JOINT RightWrist
        {
         OFFSET 0.000000 -24.004700 0.000000
         CHANNELS 3 Yrotation Xrotation Zrotation
         End Site
         {
          OFFSET 0.000000 -17.728500 0.000000
         }
        }
       }
      }
     }
     JOINT LeftCollar
     {
      OFFSET 2.921100 9.558500 0.000000
      CHANNELS 3 Yrotation Xrotation Zrotation
      JOINT LeftShoulder
      {
       OFFSET 13.519700 0.000000 0.000000
       CHANNELS 3 Yrotation Xrotation Zrotation
       JOINT LeftElbow
       {
        OFFSET 0.000000 -29.696600 0.000000
        CHANNELS 3 Yrotation Xrotation Zrotation
        JOINT LeftWrist
        {
         OFFSET 0.000000 -24.004700 0.000000
         CHANNELS 3 Yrotation Xrotation Zrotation
         End Site
         {
          OFFSET 0.000000 -17.728500 0.000000
         }
        }
       }
      }
     }
    }
   }
  }
 }
 JOINT RightHip
 {
  OFFSET -7.771700 -0.012900 -0.001300
  CHANNELS 3 Yrotation Xrotation Zrotation
  JOINT RightKnee
  {
   OFFSET 0.000000 -40.869800 0.001200
   CHANNELS 3 Yrotation Xrotation Zrotation
   JOINT RightAnkle
   {
    OFFSET 0.000000 -39.717900 0.002100
    CHANNELS 3 Yrotation Xrotation Zrotation
    JOINT RightToe
    {
     OFFSET 0.000000 -4.965400 11.033500
     CHANNELS 3 Yrotation Xrotation Zrotation
     End Site
     {
      OFFSET 0.000000 -1.423100 5.872300
     }
    }
   }
  }
 }
 JOINT LeftHip
 {
  OFFSET 7.771700 -0.012900 -0.001300
  CHANNELS 3 Yrotation Xrotation Zrotation
  JOINT LeftKnee
  {
   OFFSET 0.000000 -40.869800 0.001200
   CHANNELS 3 Yrotation Xrotation Zrotation
   JOINT LeftAnkle
   {
    OFFSET 0.000000 -39.717900 0.002100
    CHANNELS 3 Yrotation Xrotation Zrotation
    JOINT LeftToe
    {
     OFFSET 0.000000 -4.965400 11.033500
     CHANNELS 3 Yrotation Xrotation Zrotation
     End Site
     {
      OFFSET 0.000000 -1.423100 5.872300
     }
    }
   }
  }
 }
}
MOTION
Frames: 5
Frame Time: 0.008333
-61.876496 50.478247 -1.947129 163.003646 -6.617803 0.117269 3.570838 7.243617 0.504022 0.151867 0.350162 -0.022902 0.265277 0.611563 -0.039374 2.984595 6.915265 -0.281134 3.697956 17.426334 0.107923 6.786557 -3.358090 -1.042338 2.864597 7.727161 0.926212 -12.101148 -15.291569 -7.181030 -66.435816 -61.309713 86.086886 -7.237273 -6.171551 -17.162863 -7.161099 3.692465 -0.882554 26.069417 -7.367784 1.151044 66.998142 -56.514398 -84.995262 10.119482 -1.660833 4.988652 -4.731359 -73.884626 -1.177688 -116.971069 79.349703 -114.356132 0.439893 -15.870227 -1.247839 -0.234486 0.868957 -0.101496 -7.702450 -77.396666 25.369324 115.127148 78.548282 112.179599 -15.974737 -22.751952 -0.084794 -0.383455 -0.962333 -0.156173
-61.878662 50.478603 -1.949523 163.011674 -6.618631 0.122020 3.577352 7.244916 0.493361 0.152229 0.349789 -0.023045 0.265880 0.610920 -0.039798 2.991783 6.909776 -0.285706 3.699560 17.424914 0.095611 6.747902 -3.351739 -1.030111 2.861426 7.713914 0.921073 -12.099641 -15.293262 -7.188612 -66.430527 -61.300951 86.082620 -7.237726 -6.172644 -17.146005 -7.175570 3.693967 -0.869498 26.064242 -7.380905 1.146535 67.006788 -56.516007 -84.995749 10.118565 -1.655340 4.975286 -4.717601 -73.884471 -1.198833 -116.977089 79.345955 -114.366216 0.443940 -15.875147 -1.242732 -0.237948 0.871131 -0.103628 -7.696707 -77.395145 25.355349 115.166262 78.554539 112.216597 -15.968281 -22.758293 -0.084185 -0.390984 -0.963386 -0.159334
-61.881054 50.479136 -1.953539 163.019028 -6.627845 0.130226 3.588681 7.252807 0.481415 0.152587 0.349519 -0.023298 0.266604 0.610506 -0.040220 3.000128 6.905638 -0.289438 3.683887 17.428472 0.097703 6.733820 -3.350074 -1.019311 2.851324 7.702774 0.915762 -12.070345 -15.316135 -7.219098 -66.419502 -61.265830 86.046626 -7.243450 -6.173706 -17.149132 -7.192864 3.691059 -0.857994 26.058376 -7.388115 1.149051 67.067620 -56.520451 -85.048176 10.121993 -1.620121 4.971816 -4.678718 -73.876269 -1.247329 -116.995191 79.340984 -114.389065 0.462512 -15.883032 -1.231662 -0.253757 0.872827 -0.111927 -7.681226 -77.384497 25.331643 115.188365 78.543888 112.231571 -15.970908 -22.764055 -0.083107 -0.398162 -0.971323 -0.163545
-61.881087 50.479434 -1.954716 163.027587 -6.624968 0.119050 3.596409 7.249056 0.486379 0.152963 0.349031 -0.023429 0.278118 0.610642 -0.049242 2.998285 6.898957 -0.283524 3.668611 17.433534 0.105701 6.723575 -3.348333 -1.016541 2.843605 7.692561 0.909846 -12.067567 -15.320974 -7.225371 -66.420866 -61.290979 86.073731 -7.280653 -6.168325 -17.175974 -7.203071 3.684228 -0.848504 26.047616 -7.395686 1.155016 67.079197 -56.524223 -85.057568 10.127140 -1.649702 4.946220 -4.699793 -73.877045 -1.232252 -116.999250 79.337278 -114.387687 0.471192 -15.883629 -1.229547 -0.259397 0.871223 -0.114732 -7.751115 -77.383770 25.392076 115.194695 78.541841 112.231473 -15.937537 -22.774472 -0.090277 -0.381892 -0.970533 -0.163380
-61.881971 50.479608 -1.954836 163.037598 -6.615296 0.110016 3.607175 7.242240 0.479084 0.153695 0.348803 -0.023697 0.263493 0.607824 -0.036297 3.026583 6.896658 -0.299670 3.645970 17.433924 0.125233 6.709736 -3.342667 -1.020179 2.822204 7.680679 0.919851 -12.057619 -15.331615 -7.236594 -66.427532 -61.297507 86.073489 -7.283776 -6.158090 -17.166791 -7.227438 3.675821 -0.826533 26.045440 -7.418390 1.152187 67.063913 -56.529537 -85.041716 10.128788 -1.651846 4.941358 -4.740246 -73.884912 -1.201860 -116.993865 79.336148 -114.383826 0.483018 -15.884602 -1.226763 -0.268173 0.871349 -0.118972 -7.805296 -77.390550 25.436862 115.177689 78.538637 112.209443 -15.917607 -22.778777 -0.095151 -0.368648 -0.971865 -0.161459
